<svg width="243" height="224" viewBox="0 0 243 224" fill="none" xmlns="http://www.w3.org/2000/svg">
<path opacity="0.1" d="M89.5625 209.158C89.5625 211.699 123.866 213.766 166.181 213.766C208.497 213.766 242.801 211.699 242.801 209.158C242.801 206.612 208.497 204.55 166.181 204.55C123.866 204.55 89.5625 206.612 89.5625 209.158Z" fill="#1E1E2F"/>
<path d="M174.388 125.223L151.422 208.152L158.118 208.309L181.449 125.223H174.388Z" fill="#774334"/>
<path d="M190.729 95.3555L219.767 206.62L213.071 206.463L185.762 96.433L190.729 95.3555Z" fill="#774334"/>
<path d="M187.501 95.3555L216.534 206.62L209.843 206.463L182.531 96.433L187.501 95.3555Z" fill="#D09267"/>
<path d="M171.045 124.973L192.112 22.2131L187.497 20.2793L164.805 124.826L171.045 124.973Z" fill="#774334"/>
<path d="M166.055 124.856L187.499 20.2799L179.79 20.1035L159.09 124.694L166.055 124.856Z" fill="#D09267"/>
<path d="M171.135 125.223L148.168 208.152L154.864 208.309L178.193 125.223H171.135Z" fill="#D09267"/>
<path d="M139.472 125.223L116.508 208.152L123.204 208.309L146.532 125.223H139.472Z" fill="#774334"/>
<path d="M136.214 125.223L113.25 208.152L119.945 208.309L143.274 125.223H136.214Z" fill="#D09267"/>
<path d="M140.246 44.0762L223.016 46.015L221.31 53.1339L139.027 51.2094L140.246 44.0762Z" fill="#985745"/>
<path d="M134.711 43.9482L217.486 45.8821L215.775 53.0021L133.492 51.7776L134.711 43.9482Z" fill="#FEDDBE"/>
<path d="M162.143 41.0054L203.527 41.9701L202.675 45.5348L161.531 44.5751L162.143 41.0054Z" fill="#774334"/>
<path d="M159.38 40.9414L200.764 41.9111L199.91 45.4708L158.766 44.5111L159.38 40.9414Z" fill="#D09267"/>
<path d="M197.472 122.608L134.945 121.149L148.009 48.5068L205.485 49.8486L210.193 51.8803L197.472 122.608Z" fill="#D4D5D6"/>
<path d="M192.422 122.491L129.891 121.032L142.956 48.3892L205.485 49.8486L192.422 122.491Z" fill="#4271D6"/>
<path d="M208.158 54.2508C208.099 54.7943 207.714 55.1962 207.289 55.147C206.867 55.1077 206.574 54.6328 206.627 54.0938C206.679 53.5554 207.068 53.1534 207.491 53.1977C207.915 53.2419 208.211 53.7124 208.158 54.2508Z" fill="#57341E"/>
<path d="M206.716 63.0298C206.665 63.5683 206.278 63.9702 205.854 63.9259C205.428 63.8817 205.132 63.4068 205.186 62.8733C205.242 62.3349 205.632 61.928 206.055 61.9772C206.476 62.0159 206.775 62.4864 206.716 63.0298Z" fill="#57341E"/>
<path d="M204.967 71.7986C204.913 72.3371 204.526 72.739 204.1 72.6997C203.679 72.6505 203.38 72.1806 203.437 71.6416C203.49 71.1031 203.88 70.7018 204.301 70.7454C204.724 70.7852 205.023 71.2552 204.967 71.7986Z" fill="#57341E"/>
<path d="M203.529 80.5733C203.476 81.1118 203.086 81.5187 202.667 81.4745C202.244 81.4253 201.943 80.9598 201.999 80.4163C202.055 79.8779 202.442 79.4815 202.863 79.5202C203.289 79.5644 203.583 80.0393 203.529 80.5733Z" fill="#57341E"/>
<path d="M201.781 89.3428C201.725 89.8863 201.341 90.2882 200.915 90.244C200.491 90.1998 200.195 89.7298 200.248 89.1864C200.303 88.6524 200.689 88.251 201.118 88.2902C201.537 88.3339 201.836 88.8094 201.781 89.3428Z" fill="#57341E"/>
<path d="M200.341 98.1219C200.285 98.6604 199.901 99.0623 199.479 99.0181C199.054 98.9788 198.757 98.5039 198.811 97.9649C198.865 97.4264 199.252 97.0245 199.675 97.0688C200.099 97.113 200.397 97.5785 200.341 98.1219Z" fill="#57341E"/>
<path d="M198.601 106.891C198.548 107.429 198.156 107.831 197.734 107.787C197.311 107.743 197.015 107.273 197.069 106.734C197.125 106.195 197.512 105.794 197.936 105.838C198.359 105.878 198.656 106.352 198.601 106.891Z" fill="#57341E"/>
<path d="M197.158 115.671C197.105 116.204 196.715 116.611 196.294 116.567C195.871 116.523 195.569 116.053 195.629 115.509C195.682 114.975 196.069 114.574 196.493 114.613C196.913 114.657 197.215 115.132 197.158 115.671Z" fill="#57341E"/>
<path d="M124.652 120.826L207.424 122.755L205.715 129.879L123.43 127.955L124.652 120.826Z" fill="#985745"/>
<path d="M119.117 120.693L201.89 122.628L200.179 129.752L117.898 127.828L119.117 120.693Z" fill="#FEDDBE"/>
<path d="M119.761 121.428L200.216 123.637L199.728 124.641L119.559 122.711L119.761 121.428Z" fill="#FEDDBE"/>
<path d="M178.686 42.8122C178.676 43.1848 178.355 43.4833 177.961 43.4734C177.569 43.4634 177.256 43.15 177.266 42.7779C177.275 42.4058 177.599 42.1123 177.991 42.1172C178.384 42.1266 178.695 42.4351 178.686 42.8122Z" fill="#57341E"/>
<path opacity="0.72" d="M146.675 85.0138C146.778 84.3332 146.91 83.6577 147.059 82.9915C147.059 82.9865 147.057 82.9865 147.055 82.9771C147.062 82.9578 147.069 82.9329 147.074 82.9086C147.15 82.5758 147.247 82.2529 147.336 81.9245C147.657 80.6956 148.034 79.4959 148.489 78.3554C148.494 78.3797 148.499 78.4046 148.501 78.4239C149.41 76.201 150.587 74.1394 151.975 72.2841C151.997 72.2106 152.022 72.1421 152.049 72.0685C153.123 70.6488 154.338 69.3563 155.662 68.2302C155.65 68.2644 155.64 68.3031 155.627 68.338C159.03 65.3996 163.129 63.5587 167.541 63.3972C178.626 62.9909 187.709 72.9647 187.716 86.4639C187.716 86.6795 187.714 86.9045 187.709 87.1245C187.696 87.7266 187.669 88.3292 187.621 88.9461C187.594 89.3281 187.567 89.7052 187.523 90.0916C187.516 90.1016 187.508 90.1065 187.499 90.111C187.494 90.1651 187.489 90.2138 187.484 90.263C187.476 90.3315 187.474 90.4006 187.464 90.4686C187.464 90.4686 187.462 90.4686 187.462 90.4736C187.43 90.7036 187.425 90.9286 187.388 91.1691C184.996 106.994 171.881 115.9 160.223 111.826C150.403 108.389 144.924 96.5941 146.675 85.0138Z" fill="#4271D6"/>
<path d="M166.146 60.6061C178.489 60.1556 188.385 72.553 185.993 88.3736C183.601 104.203 170.486 113.109 158.828 109.031C149.009 105.598 143.53 93.8035 145.28 82.2232C147.028 70.6435 155.748 60.9832 166.146 60.6061Z" fill="#83CEEF"/>
<path d="M177.36 68.1804C177.485 67.9111 177.63 67.6513 177.674 67.3627C177.791 66.6722 178.046 66.0016 178.284 65.3354C183.868 70.1684 187.136 78.4134 186.074 87.6779C185.51 88.2213 184.872 88.7155 184.066 88.5442C182.994 88.2899 182.025 87.6635 180.916 87.8492C180.862 87.8537 180.806 87.8935 180.798 87.9565C180.757 88.3971 180.825 88.8377 180.862 89.2789C180.889 89.9158 178.808 90.4785 178.548 91.3404C178.217 92.5152 177.87 93.6706 177.508 94.836C177.091 96.1385 176.656 97.5239 175.872 98.587C175.649 98.8657 174.315 99.1648 174.181 98.9397C173.836 98.3665 173.409 97.823 172.802 97.6666C171.398 97.2796 169.767 98.4156 168.871 99.5368C168.401 97.8916 167.348 91.4726 167.554 91.2669C167.767 91.0513 170.232 88.574 171.466 89.2888C172.504 89.9008 174.477 91.5804 174.457 91.4969C174.31 90.4343 174.159 89.3867 174.017 88.3335C174.411 88.3435 175.364 88.412 175.378 88.3192C175.589 86.9774 174.864 82.003 174.008 81.3468C173.461 80.9255 172.896 80.5584 172.382 80.1222C172.294 80.0443 171.662 79.5644 171.755 79.4079C171.97 79.0845 172.193 78.781 172.442 78.4825C173.004 77.787 173.669 77.1015 174.139 76.2839C174.283 76.0052 176.815 76.7494 176.808 76.6709C176.693 75.4563 176.022 74.2914 176.142 73.0276C176.25 71.8672 177.739 71.7445 178.441 71.064C179.241 70.2811 177.106 68.7487 177.36 68.1804Z" fill="#1E7C3E"/>
<path d="M147.053 75.8484C147.185 76.5632 147.312 77.288 147.427 78.0222C147.437 78.0808 147.503 78.1001 147.539 78.0564C147.976 77.4837 148.054 76.4703 148.57 76.0247C149.085 75.5935 149.687 75.4078 150.254 75.1922C150.296 75.1778 150.326 75.1291 150.323 75.07C150.318 74.2966 150.201 73.5668 150.046 72.857C149.987 72.5585 149.747 71.9415 149.875 71.6231C150.01 71.2759 150.137 70.9326 150.259 70.5903C150.379 70.2526 150.492 69.9142 150.608 69.567C151.687 68.1368 152.899 66.8493 154.225 65.7231C154.028 66.2472 153.841 66.7608 153.7 67.2949C153.67 67.4071 153.743 67.4657 153.815 67.4121C154.192 67.0693 154.596 66.7802 155.007 66.5109C155.418 66.2561 155.888 65.9377 156.322 65.8647C157.311 65.6983 156.579 68.1661 156.584 68.8953C156.581 68.9639 159.154 68.6261 160.32 69.4924C160.176 70.0115 160.031 70.5257 159.872 71.0348C159.83 71.0204 159.781 71.0155 159.732 71.0006C159.012 70.8878 158.226 71.5047 157.58 71.9459C157.548 71.9603 157.994 73.2241 158.304 74.076C158.184 74.2916 158.062 74.5022 157.927 74.7173C157.653 74.8787 157.386 75.0656 157.132 75.2751C156.89 75.4465 156.821 75.2607 156.66 75.0744C156.498 74.8782 156.349 74.6924 156.182 74.526C155.703 74.0417 153.279 74.9279 153.191 75.6621C153.105 76.3332 153.379 76.9889 153.504 77.6009C153.509 77.6451 153.545 77.6744 153.587 77.6595C153.89 77.5716 154.187 77.4096 154.483 77.2532C154.784 77.3803 155.078 77.5124 155.374 77.6694C155.602 78.4677 155.859 79.2561 156.182 80.0151C156.195 80.0544 156.217 80.0881 156.263 80.0737C156.729 79.9516 157.587 79.4761 158.346 79.3147C158.782 79.5646 159.2 79.8239 159.585 80.186C159.805 81.8705 159.962 83.5843 159.984 85.3229C159.58 85.6458 159.198 86.0372 158.826 86.4142C158.763 86.4192 158.714 86.4142 158.657 86.4292C158.146 86.4878 157.526 86.7819 157.222 87.3541C157.034 87.6825 156.958 88.0788 156.897 88.4658C156.705 88.6228 156.515 88.7594 156.323 88.9064C155.986 88.4852 155.589 88.0838 155.167 88.2065C154.81 88.2994 154.502 88.5637 154.211 88.8285C153.772 89.2199 153.303 89.587 152.91 90.0475C152.252 90.8066 152.369 92.0161 152.533 93.0102C152.654 93.7886 152.832 94.5769 152.932 95.3846C152.646 96.0452 152.364 96.7064 152.078 97.3627C151.922 97.4705 151.775 97.5639 151.623 97.6612C151.183 97.0785 150.747 96.5107 150.333 95.9231C150.431 95.4139 150.5 94.9097 150.541 94.3956C150.619 93.6072 150.576 92.883 150.245 92.2168C149.812 91.3644 149.229 90.7137 148.642 90.0867C148.654 88.9258 148.759 87.746 148.815 86.5807C149.486 86.5022 150.167 86.4927 150.845 86.3357C150.899 86.3263 150.926 86.2628 150.913 86.1887C150.706 85.0924 150.737 83.922 150.62 82.8003C150.615 82.7517 150.6 82.7119 150.558 82.7169C150.221 82.7169 149.893 82.6533 149.559 82.6389C149.469 82.6389 148.722 82.7224 148.71 82.629C148.575 81.8119 148.561 80.955 148.436 80.1373C148.421 80.0831 148.373 80.0638 148.333 80.0881C147.63 80.6072 147.006 81.2922 146.396 81.9877C146.252 82.1491 145.863 81.1507 145.617 80.4701C145.978 78.8547 146.465 77.3123 147.053 75.8484Z" fill="#1E7C3E"/>
<path d="M174.853 68.3182C174.856 68.3425 174.878 68.3718 174.893 68.4061C174.126 68.8373 173.411 69.3415 172.699 69.8064C172.241 69.1308 170.768 65.8945 170.586 65.8945C171.534 65.8702 172.508 65.6789 173.499 65.5811C173.991 66.4573 174.474 67.3485 174.853 68.3182Z" fill="#1E7C3E"/>
<path d="M147.762 94.2734C148.127 94.4111 148.497 94.567 148.852 94.7583C148.871 94.7633 148.883 94.7727 148.896 94.7826C148.808 95.3261 148.759 95.8944 148.69 96.4522C148.487 96.403 147.968 96.178 147.469 95.9723C147.584 95.4145 147.697 94.8556 147.762 94.2734Z" fill="#1E7C3E"/>
<path d="M177.41 67.8426C177.537 67.559 177.682 67.3041 177.725 67.0155C177.841 66.325 178.098 65.6545 178.335 64.9883C183.922 69.8018 187.19 78.0419 186.128 87.3008C185.565 87.8493 184.926 88.3435 184.121 88.1671C183.046 87.9327 182.079 87.2909 180.967 87.4916C180.914 87.501 180.859 87.5308 180.849 87.5994C180.813 88.0251 180.876 88.4806 180.913 88.9113C180.942 89.5431 178.861 90.101 178.599 90.9772C178.269 92.1619 177.921 93.3229 177.559 94.4734C177.143 95.7803 176.707 97.1613 175.924 98.2382C175.703 98.5074 174.366 98.8165 174.232 98.581C173.886 98.0127 173.461 97.4692 172.854 97.3078C171.446 96.9307 169.815 98.0712 168.919 99.1974C168.449 97.5472 167.399 91.1237 167.605 90.9181C167.812 90.7124 170.278 88.2396 171.514 88.9494C172.555 89.5371 174.528 91.231 174.508 91.1381C174.361 90.0805 174.209 89.0279 174.068 87.9797C174.459 87.9946 175.414 88.0582 175.427 87.9703C175.639 86.6236 174.912 81.6641 174.058 80.9979C173.512 80.5861 172.944 80.209 172.432 79.764C172.342 79.6954 171.708 79.2349 171.803 79.0685C172.016 78.7407 172.242 78.4416 172.491 78.148C173.054 77.4432 173.717 76.7621 174.188 75.9444C174.335 75.6608 176.863 76.4 176.858 76.3215C176.743 75.0975 176.073 73.9271 176.19 72.6738C176.303 71.5035 177.788 71.4007 178.494 70.6958C179.29 69.9285 177.158 68.4054 177.41 67.8426Z" fill="#7CBB42"/>
<path d="M147.094 75.5647C147.226 76.284 147.354 77.0137 147.471 77.7385C147.481 77.7921 147.544 77.822 147.581 77.7778C148.015 77.2095 148.101 76.1762 148.615 75.7406C149.126 75.3149 149.729 75.1286 150.298 74.903C150.34 74.8936 150.367 74.8444 150.365 74.7908C150.36 74.0124 150.245 73.2777 150.091 72.5678C150.032 72.2743 149.792 71.6573 149.919 71.3339C150.052 70.9961 150.181 70.6484 150.301 70.3056C150.421 69.9628 150.534 69.63 150.651 69.2779C151.729 67.8582 152.943 66.5651 154.27 65.439C154.072 65.9432 153.885 66.4772 153.741 67.0157C153.714 67.1185 153.785 67.1771 153.858 67.1135C154.235 66.7757 154.642 66.4816 155.048 66.2223C155.461 65.9481 155.935 65.6446 156.368 65.5761C157.354 65.3997 156.622 67.8725 156.627 68.6017C156.627 68.6603 159.2 68.3181 160.368 69.1701C160.221 69.7036 160.077 70.2177 159.918 70.7318C159.874 70.7175 159.829 70.7075 159.779 70.6926C159.059 70.5798 158.273 71.2017 157.626 71.6379C157.594 71.6617 158.038 72.9305 158.351 73.7774C158.228 73.988 158.106 74.2037 157.974 74.4093C157.699 74.5807 157.432 74.767 157.18 74.9577C156.933 75.1435 156.867 74.9671 156.705 74.7664C156.541 74.5857 156.395 74.3894 156.228 74.223C155.748 73.7431 153.322 74.6343 153.234 75.3685C153.148 76.0341 153.423 76.6959 153.545 77.3123C153.552 77.3465 153.591 77.3759 153.63 77.3659C153.936 77.2681 154.23 77.1116 154.529 76.9546C154.827 77.0817 155.121 77.2238 155.417 77.3659C155.645 78.1642 155.902 78.9525 156.225 79.7116C156.238 79.7608 156.262 79.7951 156.309 79.7702C156.774 79.6431 157.633 79.1825 158.392 79.0067C158.828 79.2516 159.246 79.5209 159.633 79.8636C159.854 81.5476 160.01 83.2713 160.032 84.9995C159.626 85.3373 159.244 85.7292 158.872 86.1162C158.808 86.1162 158.759 86.1162 158.705 86.1162C158.191 86.1842 157.572 86.4734 157.269 87.0461C157.08 87.3839 157.004 87.7709 156.945 88.1579C156.755 88.3049 156.561 88.4514 156.373 88.5985C156.03 88.1822 155.633 87.7808 155.214 87.8936C154.857 87.9964 154.549 88.2657 154.257 88.5299C153.822 88.9169 153.349 89.289 152.955 89.7445C152.296 90.5179 152.416 91.7226 152.578 92.7166C152.7 93.485 152.876 94.2833 152.977 95.086C152.691 95.7472 152.409 96.4134 152.123 97.0646C151.969 97.1625 151.819 97.2653 151.668 97.3632C151.227 96.7904 150.792 96.2127 150.375 95.63C150.478 95.1258 150.546 94.6018 150.586 94.1025C150.664 93.3142 150.62 92.5949 150.29 91.9288C149.856 91.0768 149.274 90.4256 148.686 89.8037C148.696 88.6333 148.801 87.4629 148.86 86.2931C149.531 86.2202 150.209 86.2146 150.887 86.0532C150.946 86.0289 150.973 85.9648 150.959 85.8962C150.748 84.8093 150.782 83.6296 150.665 82.5128C150.66 82.4686 150.646 82.4244 150.601 82.4294C150.266 82.4244 149.936 82.3757 149.602 82.3658C149.514 82.3514 148.768 82.4437 148.755 82.3514C148.618 81.5288 148.603 80.6719 148.479 79.8592C148.464 79.8056 148.415 79.7807 148.375 79.8056C147.67 80.3341 147.051 81.0152 146.439 81.7151C146.294 81.8721 145.905 80.8731 145.66 80.1926C146.02 78.5755 146.507 77.0331 147.094 75.5647Z" fill="#7CBB42"/>
<path d="M174.902 67.9847C174.905 67.9997 174.929 68.029 174.944 68.0533C174.178 68.4889 173.463 68.9931 172.746 69.473C172.291 68.7974 170.814 65.5605 170.633 65.5655C171.58 65.5412 172.557 65.3405 173.546 65.2471C174.038 66.1145 174.523 67.015 174.902 67.9847Z" fill="#47AB48"/>
<path d="M147.804 93.9893C148.166 94.1264 148.536 94.2828 148.893 94.4691C148.911 94.4835 148.925 94.4885 148.937 94.4935C148.847 95.0413 148.8 95.6002 148.732 96.1531C148.529 96.1088 148.008 95.8938 147.508 95.6876C147.626 95.1303 147.738 94.567 147.804 93.9893Z" fill="#47AB48"/>
<path opacity="0.4" d="M166.146 60.6061C178.489 60.1556 188.385 72.553 185.993 88.3736C183.601 104.203 170.486 113.109 158.828 109.031C149.009 105.598 143.53 93.8035 145.28 82.2232C147.028 70.6435 155.748 60.9832 166.146 60.6061ZM161.425 102.553C171.249 105.423 181.968 97.6568 183.914 84.7895C185.858 71.9222 177.852 61.7328 167.555 61.9971C158.644 62.2221 151.03 70.4334 149.532 80.3436C148.034 90.2538 152.923 100.071 161.425 102.553Z" fill="#45BBEC"/>
<path d="M108.704 86.0673C108.704 86.0673 106.543 80.0988 110.868 76.7398C115.197 73.3807 123.263 77.3324 122.534 79.5946C121.807 81.8563 118.396 87.4682 115.951 86.9142C113.503 86.3614 113.082 87.3012 113.082 87.3012L108.704 86.0673Z" fill="#F5BA9E"/>
<path opacity="0.5" d="M108.704 86.0673C108.704 86.0673 106.543 80.0988 110.868 76.7398C115.197 73.3807 123.263 77.3324 122.534 79.5946C121.807 81.8563 118.396 87.4682 115.951 86.9142C113.503 86.3614 113.082 87.3012 113.082 87.3012L108.704 86.0673Z" fill="#F5BA9E"/>
<path d="M89.3926 96.9907L100.125 106.544L92.913 112.375L83.7227 103.973C83.7227 103.973 90.0167 97.2743 89.3926 96.9907Z" fill="#F5BA9E"/>
<path d="M89.3926 96.9907L100.125 106.544L92.913 112.375L83.7227 103.973C83.7227 103.973 90.0167 97.2743 89.3926 96.9907Z" fill="#E29C7D"/>
<path d="M87.3136 156.477C87.3136 156.477 78.9928 192.764 68.6194 213.333C68.6194 213.333 68.6194 213.333 66.607 213.431C66.607 213.431 64.4703 212.834 64.776 211.311C70.0518 185.243 73.6751 174.911 73.6751 174.911C73.6751 174.911 74.255 160.629 75.6802 159.9C77.1049 159.174 87.3136 156.477 87.3136 156.477Z" fill="#F5BA9E"/>
<path d="M87.3136 156.477C87.3136 156.477 78.9928 192.764 68.6194 213.333C68.6194 213.333 68.6194 213.333 66.607 213.431C66.607 213.431 64.4703 212.834 64.776 211.311C70.0518 185.243 73.6751 174.911 73.6751 174.911C73.6751 174.911 74.255 160.629 75.6802 159.9C77.1049 159.174 87.3136 156.477 87.3136 156.477Z" fill="#F5BA9E"/>
<path d="M78.1796 173.957C75.9793 175.303 74.9875 177.707 73.805 179.901C72.6396 182.06 71.5085 184.239 70.3945 186.428C72.4511 178.403 73.6751 174.911 73.6751 174.911C73.6751 174.911 74.255 160.629 75.6802 159.9C77.1049 159.175 87.3136 156.477 87.3136 156.477C87.3136 156.477 85.7762 163.18 83.1983 172.463C81.4723 172.796 79.6513 173.061 78.1796 173.957Z" fill="#F2A687"/>
<path d="M65.8728 206.013C67.7431 206.792 69.9611 207.207 71.6799 206.703C70.6859 209.034 69.6598 211.262 68.6194 213.333C68.6194 213.333 68.6194 213.333 66.607 213.431C66.607 213.431 64.4703 212.834 64.776 211.311C65.1503 209.465 65.5157 207.702 65.8728 206.013Z" fill="#77C8F0"/>
<path d="M68.0122 211.536C68.0122 211.536 69.7431 209.553 70.8427 210.802C70.8427 210.802 72.8379 213.764 76.8333 216.511C80.8314 219.257 82.1334 220.516 81.5706 222.847C81.5706 222.847 78.797 225.324 72.5024 223.018C72.5024 223.018 68.884 222.229 66.6003 220.114C64.9351 218.572 62.575 218.684 62.5291 217.127C62.4827 215.56 63.3446 210.38 64.1816 210.233C64.5437 210.17 64.8594 210.033 65.222 210.243C65.5769 210.454 65.8141 210.816 66.184 211.012C66.4112 211.134 67.8336 211.771 68.0122 211.536Z" fill="#3C56A5"/>
<path d="M64.4578 217.583C65.7261 218.166 66.6222 218.827 67.6405 219.767C69.3444 221.339 72.1423 222.382 74.3802 222.793C75.901 223.072 76.706 223.028 78.2534 223.003C78.9754 222.994 79.8787 222.739 80.5742 222.489C81.1646 222.274 81.5041 221.951 81.6732 221.554C81.7175 221.951 81.6832 222.376 81.5704 222.847C81.5704 222.847 78.7968 225.324 72.5022 223.018C72.5022 223.018 68.8839 222.229 66.6001 220.114C64.9349 218.572 62.5749 218.684 62.529 217.127C62.524 216.991 62.5312 216.814 62.5384 216.628C63.1625 216.971 63.8022 217.279 64.4578 217.583Z" fill="#8E1926"/>
<path d="M68.5865 213.372L68.5893 213.367C68.5699 213.284 68.5622 213.197 68.5815 213.103C68.6744 212.677 69.0735 212.54 69.497 212.515C69.7663 212.457 70.0504 212.457 70.2854 212.496C70.8244 212.585 71.3629 212.834 71.7963 213.197C71.7299 213.069 71.6691 212.942 71.6299 212.805C71.5392 212.501 71.3922 212.119 71.4441 211.791C71.5326 211.248 71.997 210.797 72.5653 210.91C73.6792 211.126 73.3708 213.123 72.6239 213.657C72.651 213.671 72.6781 213.691 72.7074 213.701C73.0451 213.809 73.3586 214.058 73.6428 214.249C74.0513 214.523 74.414 214.842 74.7562 215.175C74.9668 215.371 75.168 215.577 75.3538 215.797C75.5788 216.056 75.0431 216.061 74.8988 215.904C74.7368 215.713 74.5583 215.532 74.3775 215.356C74.2426 215.224 74.1033 215.097 73.959 214.974C73.8362 214.871 73.7185 214.764 73.5913 214.67C73.2115 214.371 72.5266 213.891 72.5045 214.333C72.4602 215.199 72.8279 216.002 73.1142 216.8C73.1435 216.83 73.1657 216.859 73.1706 216.894C73.1728 216.943 73.1706 216.977 73.1364 217.011C73.0192 217.148 72.7544 217.035 72.6786 216.908C72.3552 216.37 72.1888 215.704 72.0417 215.097C72.0075 214.954 71.9196 214.518 71.9389 214.161C71.3612 214.49 70.4484 214.558 69.9365 214.538C69.3251 214.508 68.5279 214.063 68.5865 213.372ZM72.2291 213.485C72.4525 213.191 72.636 212.942 72.746 212.574C72.8096 212.349 72.8312 212.124 72.8312 211.894C72.8312 211.507 72.5326 211.002 72.1191 211.404C71.7421 211.766 71.8764 212.256 71.9621 212.706C72.0063 212.941 72.0622 213.177 72.17 213.387C72.1827 213.417 72.1893 213.441 72.1971 213.47C72.2093 213.475 72.2192 213.48 72.2291 213.485ZM71.8986 213.558C71.8643 213.529 71.8322 213.504 71.7985 213.475C71.7692 213.46 71.7421 213.44 71.7272 213.435C71.4336 213.25 71.1378 213.083 70.8117 212.956C70.4031 212.803 69.7933 212.691 69.3748 212.897C69.3649 212.906 69.3505 212.916 69.3383 212.921C69.3334 212.921 69.3306 212.931 69.3256 212.931C69.267 212.97 69.2107 213.019 69.1565 213.078C69.0536 213.185 69 213.303 68.9829 213.42C69.0288 213.964 70.8189 213.95 71.0494 213.895C71.1688 213.867 71.71 213.671 71.8986 213.558Z" fill="#8E1926"/>
<path d="M72.4465 157.206C72.4465 157.206 57.3535 191.236 43.24 209.445C43.24 209.445 43.2401 209.445 41.2471 209.161C41.2471 209.161 39.2618 208.167 39.8517 206.733C50.0118 182.148 55.5396 172.698 55.5396 172.698C55.5396 172.698 58.8373 158.783 60.3725 158.347C61.9094 157.9 72.4465 157.206 72.4465 157.206Z" fill="#F5BA9E"/>
<path d="M72.4465 157.206C72.4465 157.206 57.3535 191.236 43.24 209.445C43.24 209.445 43.2401 209.445 41.2471 209.161C41.2471 209.161 39.2618 208.167 39.8517 206.733C50.0118 182.148 55.5396 172.698 55.5396 172.698C55.5396 172.698 58.8373 158.783 60.3725 158.347C61.9094 157.9 72.4465 157.206 72.4465 157.206Z" fill="#F5BA9E"/>
<path d="M60.1463 172.624C57.727 173.525 56.2952 175.694 54.7163 177.619C53.1589 179.518 51.6314 181.443 50.1211 183.381C53.6731 175.895 55.5411 172.697 55.5411 172.697C55.5411 172.697 58.8388 158.782 60.374 158.346C61.9115 157.9 72.4486 157.206 72.4486 157.206C72.4486 157.206 69.6601 163.492 65.3562 172.11C63.5976 172.11 61.7594 172.022 60.1463 172.624Z" fill="#F2A687"/>
<path d="M41.9403 201.738C43.627 202.859 45.7251 203.692 47.5096 203.525C46.0899 205.62 44.6575 207.618 43.2401 209.444C43.2401 209.444 43.24 209.444 41.2471 209.161C41.2471 209.161 39.2618 208.166 39.8517 206.732C40.5743 204.989 41.267 203.329 41.9403 201.738Z" fill="#77C8F0"/>
<path d="M42.9889 207.565C42.9889 207.565 45.0654 205.954 45.9046 207.389C45.9046 207.389 47.2977 210.674 50.6982 214.137C54.0987 217.598 55.1348 219.082 54.138 221.255C54.138 221.255 50.9404 223.16 45.2025 219.694C45.2025 219.694 41.8019 218.234 39.9632 215.718C38.6242 213.887 36.2863 213.549 36.5384 212.006C36.7905 210.468 38.6264 205.543 39.4762 205.563C39.8454 205.568 40.181 205.49 40.4945 205.768C40.8052 206.042 40.9699 206.444 41.2928 206.709C41.4929 206.869 42.7661 207.761 42.9889 207.565Z" fill="#3C56A5"/>
<path d="M38.345 212.823C39.4789 213.641 40.2302 214.458 41.0528 215.575C42.4261 217.44 44.9725 219.003 47.0898 219.835C48.5294 220.397 49.3294 220.505 50.8525 220.779C51.5623 220.906 52.4983 220.828 53.2275 220.716C53.8494 220.622 54.243 220.363 54.4857 220.01C54.4509 220.412 54.3365 220.819 54.138 221.254C54.138 221.254 50.9404 223.159 45.2025 219.692C45.2025 219.692 41.8019 218.233 39.9632 215.716C38.6242 213.885 36.2863 213.548 36.5384 212.005C36.5605 211.873 36.5997 211.706 36.6412 211.525C37.1896 211.981 37.7601 212.403 38.345 212.823Z" fill="#8E1926"/>
<path d="M43.1994 209.484L43.2021 209.479C43.1994 209.391 43.2093 209.308 43.248 209.215C43.4194 208.813 43.8357 208.754 44.257 208.813C44.5339 208.808 44.8131 208.862 45.0331 208.945C45.5495 209.131 46.0271 209.484 46.3843 209.919C46.3428 209.782 46.3063 209.646 46.2964 209.508C46.2643 209.19 46.193 208.783 46.3058 208.475C46.4971 207.961 47.0377 207.604 47.5762 207.824C48.6266 208.25 47.9411 210.149 47.1063 210.531C47.1306 210.551 47.1549 210.571 47.182 210.59C47.4905 210.761 47.7526 211.065 47.9947 211.305C48.3424 211.658 48.6382 212.029 48.913 212.426C49.0794 212.656 49.2386 212.896 49.3807 213.146C49.5498 213.449 49.023 213.346 48.913 213.17C48.788 212.95 48.6459 212.744 48.5044 212.533C48.3994 212.377 48.2838 212.225 48.1666 212.078C48.0666 211.951 47.9704 211.823 47.8653 211.706C47.5502 211.339 46.9692 210.737 46.8614 211.172C46.6513 212.009 46.8592 212.871 46.9885 213.709C47.0129 213.743 47.0283 213.777 47.0256 213.811C47.0206 213.856 47.0106 213.889 46.9686 213.919C46.8293 214.032 46.5894 213.866 46.5402 213.733C46.3246 213.136 46.2881 212.455 46.261 211.829C46.2538 211.687 46.2488 211.241 46.3389 210.894C45.7076 211.105 44.8015 211.002 44.3023 210.879C43.708 210.738 43.0109 210.146 43.1994 209.484ZM46.7541 210.287C47.0283 210.042 47.2561 209.827 47.4347 209.489C47.5425 209.283 47.6061 209.063 47.6503 208.838C47.7233 208.461 47.5253 207.903 47.0433 208.221C46.6049 208.51 46.6441 209.014 46.6419 209.474C46.6391 209.709 46.6496 209.954 46.7154 210.179C46.7226 210.209 46.7248 210.233 46.7248 210.268C46.7348 210.273 46.7442 210.277 46.7541 210.287ZM46.4163 210.296C46.3893 210.257 46.3622 210.229 46.3329 210.194C46.3058 210.174 46.2837 210.149 46.2715 210.14C46.0166 209.9 45.7596 209.685 45.461 209.499C45.0912 209.269 44.5157 209.043 44.0624 209.166C44.0502 209.17 44.0358 209.175 44.0231 209.18C44.0187 209.18 44.0137 209.185 44.0087 209.185C43.9452 209.22 43.8788 209.253 43.8152 209.298C43.6931 209.381 43.6173 209.494 43.5808 209.606C43.5189 210.145 45.2819 210.473 45.5169 210.463C45.6402 210.458 46.2079 210.371 46.4163 210.296Z" fill="#8E1926"/>
<path d="M70.0917 86.2233C70.0917 86.2233 83.8137 96.751 87.5714 123.632C88.886 130.393 95.6528 141.488 93.0235 162.352C79.6785 165.922 58.8155 164.423 51.2969 158.778C54.4917 136.974 55.6184 132.651 59.5646 127.578C63.702 121.942 58.2499 78.7074 70.0917 86.2233Z" fill="#6661AB"/>
<g opacity="0.5">
<path d="M59.5612 127.578C62.7926 123.171 60.1732 95.8396 64.5158 87.6631C67.9262 95.698 74.7665 112.972 76.1569 125.35C76.7788 130.481 73.2141 131.852 67.1522 132.625C63.6909 132.777 62.2851 148.676 60.8339 162.65C56.8578 161.73 53.4966 160.432 51.293 158.777C54.4878 136.974 55.6145 132.651 59.5612 127.578Z" fill="#6661AB"/>
</g>
<g opacity="0.5">
<path d="M81.7543 113.687C75.4359 93.9891 69.2198 87.3252 66.9531 85.43C67.8371 85.2244 68.8698 85.4494 70.0894 86.2234C70.0894 86.2234 83.8114 96.7511 87.569 123.632C87.9046 125.355 88.5923 127.363 89.3906 129.738C83.7893 127.706 83.823 120.488 81.7543 113.687Z" fill="#6661AB"/>
</g>
<path d="M71.2695 85.2935C71.2695 85.2935 82.2152 86.0724 93.0071 97.4902C88.1599 104.683 87.6894 105.31 87.6894 105.31L71.2695 85.2935Z" fill="#F9BAB7"/>
<path d="M88.4656 104.188C87.8 105.157 87.6894 105.31 87.6894 105.31L71.2695 85.2935C71.2695 85.2935 71.7422 85.3277 72.577 85.4797C76.6575 86.973 84.9081 91.4869 88.4656 104.188Z" fill="#ECA2A3"/>
<path d="M86.5159 100.345C90.969 111.489 91.4246 128.044 91.4268 128.068C91.4981 128.661 90.0336 128.23 89.6494 128.152C87.3463 127.672 85.9288 125.366 85.3948 123.226C83.7595 116.655 80.7017 105.58 77.2669 98.6711C72.1675 88.4132 67.2539 85.0198 67.2539 85.0198C71.6755 84.1287 82.0584 89.196 86.5159 100.345Z" fill="#EB909B"/>
<path d="M70.42 81.3223L70.8534 89.6315C70.8534 89.6315 71.9966 92.697 68.4541 92.9563C68.4541 92.9563 63.7588 91.9916 63.1147 88.5004C62.4685 85.0098 62.8328 80.0298 62.8328 80.0298L70.42 81.3223Z" fill="#E29C7D"/>
<path d="M52.7522 87.2126C52.7522 87.2126 58.8749 84.2555 62.4788 84.6762C62.4788 84.6762 66.5107 90.8459 71.1385 107.684L74.8591 123.049C74.889 124.494 74.7297 125.914 74.0978 127.138C73.0618 129.14 70.8709 129.757 68.7757 130.207C64.2219 130.814 56.9925 130.345 53.2785 129.111L50.8477 103.435L52.7522 87.2126Z" fill="#EB909B"/>
<path d="M0.450428 58.6571C1.03533 56.2677 2.06914 54.0204 3.6674 52.1303C5.81683 49.5845 8.9437 47.4892 12.3022 46.4067C12.6057 48.3063 13.3448 50.1771 14.006 51.9102C15.2571 55.1764 16.7675 58.3292 18.3862 61.424C20.0408 64.5918 21.7231 67.7546 23.4833 70.8643C25.2751 74.0321 29.8017 78.1938 31.337 81.4993C33.9364 87.1156 35.8 94.7143 29.8017 103.788C29.2511 103.88 28.4335 103.954 27.8652 103.973C27.9315 103.772 29.0449 98.3813 28.9471 98.6804C28.2931 100.644 24.9959 103.827 24.5846 103.778C23.6005 103.66 22.2444 103.401 21.272 103.225C21.879 102.128 22.7166 99.4643 22.5966 99.7042C21.9724 100.963 18.18 102.559 17.2495 102.27C16.4877 102.036 15.7243 101.776 14.9652 101.497C15.9913 100.053 17.1561 93.6872 15.5971 90.5194C15.465 90.2502 16.9145 95.9936 11.249 99.9154C10.6763 99.6318 10.1085 99.3377 9.55458 99.0193C10.2943 97.8346 10.8521 96.5613 10.982 95.0925C11.2048 92.571 10.1937 89.8095 9.17313 87.5573C6.67595 82.0538 2.61424 77.2209 0.917578 71.3602C0.775498 70.866 0.648353 70.3563 0.527834 69.8377C0.393494 68.9614 0.271318 68.0797 0.1801 67.1984C-0.0996367 64.4497 -0.0852722 61.4821 0.450428 58.6571Z" fill="#8D674E"/>
<path opacity="0.6" d="M0.450323 58.6572C0.986577 56.4729 1.89988 54.4119 3.27092 52.6251C2.20339 54.9017 1.41779 57.2076 1.34427 59.754C1.17786 65.5217 4.10845 70.5603 7.83238 74.7519C8.02366 74.967 8.44658 74.7956 8.30948 74.4971C7.29557 72.205 6.5907 69.772 6.56195 67.2654C8.47864 71.3979 11.3916 74.8691 13.9401 78.6295C16.7436 82.772 18.5702 87.1593 19.1645 92.1431C19.1965 92.393 19.5957 92.5008 19.6858 92.2316C21.4289 87.1294 19.9948 81.9195 17.9797 77.1214C21.3775 80.6319 24.1759 85.0436 24.6436 89.9694C24.6735 90.2779 25.1335 90.2972 25.1849 89.9937C25.8975 85.8264 23.9808 82.1257 21.9806 78.6097C19.7527 74.6878 17.2727 70.9175 15.1254 66.9564C12.9318 62.9074 10.7702 58.5394 10.0211 53.9564C9.9575 53.5694 9.59484 49.7111 9.86462 47.3903C10.6552 47.0039 11.4728 46.6755 12.3026 46.4062C12.6061 48.3058 13.3453 50.1766 14.0065 51.9098C15.2576 55.1759 16.7679 58.3288 18.3866 61.4236C20.0413 64.5913 21.7236 67.7541 23.4838 70.8638C25.2755 74.0316 29.8022 78.1934 31.3374 81.4988C33.9369 87.1151 35.8005 94.7138 29.8022 103.787C29.2516 103.88 28.4339 103.953 27.8656 103.973C27.9319 103.772 29.0453 98.3808 28.9475 98.6799C28.2935 100.643 24.9964 103.826 24.5851 103.777C23.601 103.66 22.2449 103.4 21.2724 103.224C21.8795 102.127 22.717 99.4638 22.597 99.7038C21.9729 100.962 18.1804 102.559 17.25 102.269C16.4882 102.035 15.7247 101.775 14.9657 101.496C15.9917 100.052 17.1566 93.6867 15.5976 90.5189C15.4654 90.2497 16.915 95.9931 11.2495 99.9149C10.6767 99.6313 10.109 99.3372 9.55502 99.0188C10.2947 97.8341 10.8525 96.5609 10.9824 95.092C11.2052 92.5705 10.1941 89.8091 9.17358 87.5568C6.6764 82.0533 2.61469 77.2204 0.918029 71.3597C0.77595 70.8655 0.648804 70.3558 0.528286 69.8372C0.393946 68.961 0.271753 68.0792 0.180535 67.1979C-0.0997547 64.4498 -0.0853772 61.4822 0.450323 58.6572Z" fill="#A6785C"/>
<path d="M11.2352 43.4883C11.2352 43.4883 5.33972 45.1136 5.75103 49.4225C6.16234 53.7363 12.3027 63.3523 21.319 65.6444L11.2352 43.4883Z" fill="#77C8F0"/>
<path d="M11.031 50.4706C11.0337 48.2626 10.6567 45.9611 10.5998 43.7039C10.9868 43.5568 11.2339 43.4883 11.2339 43.4883L21.3176 65.6444C16.0955 64.317 11.8409 60.5323 9.10156 56.7426C10.6661 55.1659 11.026 52.7373 11.031 50.4706Z" fill="#77C8F0"/>
<path d="M87.8438 48.0669C87.8438 48.0669 89.5448 39.7334 96.5078 42.8177C103.468 45.8975 102.814 62.2367 89.9932 62.8536L87.8438 48.0669Z" fill="#F5BA9E"/>
<path d="M96.4014 46.862C95.2609 46.0886 93.8451 47.6255 93.2823 48.4138C91.1793 51.3759 91.307 56.5566 92.4868 59.7537C92.5437 59.9107 92.7881 59.6508 92.7709 59.5386C92.5111 57.8735 92.3497 56.1403 92.3746 54.4221C93.3393 55.6262 95.518 56.3023 96.6198 55.2884C96.6834 55.2298 96.7005 55.0634 96.5756 55.1413C95.9194 55.5327 94.6876 55.0485 94.1077 54.73C93.3265 54.3038 92.8981 53.6675 92.4453 52.9825C92.4824 52.5419 92.5266 52.1063 92.5902 51.675C92.8152 50.2161 94.3476 45.9614 96.6226 47.9589C97.3252 48.5659 97.7216 49.697 98.0815 50.5345C98.118 50.618 98.2651 50.471 98.2457 50.4074C97.9317 49.0701 97.6133 47.6847 96.4014 46.862Z" fill="#EC8861"/>
<path opacity="0.5" d="M99.0758 57.6878C99.1056 57.6928 99.1322 57.6928 99.1592 57.6878C97.4582 60.5034 94.4662 62.6379 89.9932 62.8535L87.8438 48.0668C87.8438 48.0668 89.374 40.5852 95.4624 42.4311C93.0802 43.4589 91.0585 46.8522 90.8258 49.3936C90.7942 49.7314 91.3056 49.8784 91.4306 49.5406C92.5274 46.505 95.945 44.6933 97.9231 47.9982C99.1891 50.1084 99.3262 53.1733 98.5915 55.4997C98.3996 56.1012 98.0353 57.5806 99.0758 57.6878ZM96.8478 56.5573C96.1501 56.0282 95.0019 56.0818 94.1721 55.901C94.0864 55.8767 94.0178 55.8961 93.9642 55.9303C93.8393 55.8811 93.7171 55.8319 93.5966 55.7833C93.413 55.7147 93.1803 55.8369 93.1632 56.0376C93.031 57.6878 94.5049 60.3464 96.3707 58.7012C96.9755 58.1726 97.6754 57.1836 96.8478 56.5573Z" fill="#F2A687"/>
<path d="M63.3103 0.0823845C66.1745 0.390869 69.0316 0.870737 71.8301 1.57118C73.216 1.98747 74.5771 2.4817 75.9062 3.06937C89.543 9.07707 99.5411 22.8599 97.5924 38.1028C97.2153 41.0356 95.3257 44.404 94.4052 47.2196C94.1404 48.0279 91.9036 53.3202 91.1833 53.8935C91.1562 53.9128 53.085 82.9236 53.085 82.9236C37.2478 82.5709 16.8912 79.2616 10.6729 48.9185C5.32305 22.8112 36.3975 -1.60211 63.3103 0.0823845Z" fill="#A6785C"/>
<path opacity="0.6" d="M20.9275 17.9293C20.0043 19.6337 19.2358 21.4255 18.6166 23.2565C16.3837 29.8618 15.8646 37.4368 18.5354 44.0073C18.636 44.2572 19.0158 44.2279 19.0617 43.9586C20.1707 37.549 21.8795 30.968 25.824 25.7199C24.71 28.2271 23.7232 30.8022 23.0499 33.4608C22.2986 36.4328 21.7573 39.7134 22.8099 42.6855C22.8934 42.9154 23.2091 42.906 23.3141 42.7004C25.1059 39.2927 26.0413 35.5466 27.6274 32.051C29.1919 28.6041 31.5077 25.5535 34.1105 22.8115C39.3376 17.3179 45.6853 13.0677 52.8606 10.5705C63.5398 6.85432 75.8244 6.00682 86.5157 9.98283C94.2793 17.0824 98.9822 27.2181 97.5913 38.1024C97.2143 41.0352 95.3247 44.4037 94.4042 47.2193C94.1394 48.0275 91.9026 53.3198 91.1823 53.8931C91.1552 53.9125 53.0839 82.9232 53.0839 82.9232C37.2468 82.5705 16.8901 79.2613 10.6718 48.9182C8.35652 37.6126 12.8754 26.6205 20.9275 17.9293Z" fill="#A6785C"/>
<path d="M28.2314 54.6367C27.3258 50.465 25.6999 46.6122 24.6501 42.4892C22.6742 34.7384 24.1238 27.0069 28.2855 20.5288C31.8547 14.9766 36.7633 11.5241 42.4725 8.7627C48.6737 5.76631 55.5504 5.81993 62.2729 6.50545C68.0435 7.09312 73.8599 9.45319 78.7857 12.7044C81.4548 14.4619 83.5207 16.7485 85.3517 19.4026C86.1992 20.6316 87.0291 21.8019 87.7024 23.0359C87.7096 23.0458 87.7168 23.0503 87.7245 23.0602C89.7662 25.9245 90.2095 29.5671 90.5374 33.0047C90.3931 36.2216 90.3317 39.448 90.4052 42.6749C90.4616 45.0842 90.3909 47.5122 90.5252 49.9215C90.643 52.0516 91.135 53.9462 91.8083 55.9735C93.7178 61.7268 97.3605 67.3674 92.4154 72.3618C90.4495 74.3448 87.1247 77.1157 84.8188 78.683C81.844 80.6953 78.5933 82.9089 75.1779 84.0007C72.1179 84.9748 69.1066 85.1711 65.8482 84.9461C58.4888 84.4369 51.3621 83.1438 44.3975 79.8832C38.0028 76.8912 33.7432 73.1606 31.3068 66.4381C29.9308 62.6374 29.0838 58.5784 28.2314 54.6367Z" fill="#F5BA9E"/>
<path opacity="0.6" d="M28.2851 20.5288C31.8543 14.9766 36.7629 11.5241 42.4721 8.7627C48.6733 5.76631 55.55 5.81993 62.2725 6.50545C68.0431 7.09312 73.8595 9.45319 78.7853 12.7044C81.4544 14.4619 83.5203 16.7485 85.3513 19.4026C86.1989 20.6316 87.0287 21.8019 87.702 23.0359C87.7092 23.0458 87.7164 23.0503 87.7241 23.0602C89.7658 25.9245 90.2091 29.5671 90.537 33.0047C90.3927 36.2216 90.3313 39.448 90.4048 42.6749C90.4612 45.0842 90.3905 47.5123 90.5248 49.9215C90.6426 52.0516 91.1346 53.9462 91.8079 55.9735C93.3697 60.6792 96.0875 65.3065 94.325 69.5661C94.3344 69.5219 94.3488 69.4776 94.3593 69.4389C95.3682 65.5121 93.2475 61.9574 91.6808 58.4463C90.4861 55.7728 89.4849 53.0556 89.3285 50.1029C89.1936 47.5084 88.8215 42.6898 85.9324 41.7014C65.9627 34.8462 44.7785 49.9906 43.1631 52.4242C42.3355 53.6731 40.2668 70.4136 41.8971 73.8313C43.413 77.0184 45.212 79.3884 48.2233 81.1951C48.5959 81.4201 48.9851 81.6501 49.3842 81.8806C47.7119 81.3128 46.0495 80.6566 44.3976 79.8832C38.0029 76.8912 33.7433 73.1607 31.307 66.4381C29.9309 62.6379 29.0845 58.5795 28.2321 54.6378C27.3265 50.4661 25.7006 46.6133 24.6508 42.4903C22.6738 34.7384 24.1234 27.0069 28.2851 20.5288Z" fill="#F2A687"/>
<path d="M32.5643 62.3342C32.5643 62.3342 26.5002 56.9235 23.0947 63.2939C19.6892 69.6587 29.5922 81.8068 39.483 74.9029L32.5643 62.3342Z" fill="#F5BA9E"/>
<path d="M25.5087 66.3348C25.9079 65.0865 27.8467 65.4536 28.7207 65.7328C31.9913 66.7909 34.8804 70.8349 35.8473 73.959C35.8938 74.1155 35.561 74.0569 35.5096 73.9635C34.7433 72.5388 33.8643 71.1141 32.8559 69.8117C32.8316 71.2905 31.6026 73.0629 30.1973 72.9208C30.1166 72.9114 30.0088 72.7937 30.1465 72.7837C30.8613 72.7052 31.4976 71.6227 31.7475 71.0456C32.0831 70.2722 32.0361 69.5374 31.9753 68.7491C31.6966 68.4356 31.4125 68.1222 31.1112 67.8286C30.1072 66.8396 26.5182 64.4646 25.9742 67.2995C25.8056 68.1714 26.1555 69.2682 26.3706 70.1102C26.3905 70.2031 26.202 70.1738 26.1749 70.1102C25.6386 68.9056 25.0775 67.6617 25.5087 66.3348Z" fill="#EC8861"/>
<path opacity="0.5" d="M28.8457 74.2085C26.9633 72.8524 25.3009 70.4237 25.0267 68.0781C24.591 64.4061 28.1823 63.8278 30.7452 65.5217C31.0316 65.7125 31.3279 65.3067 31.1079 65.0667C29.4726 63.2551 26.0129 61.8155 23.6484 62.3982C27.1175 57.4824 32.5646 62.3346 32.5646 62.3346L39.4834 74.9034C36.0315 77.3127 32.5795 77.4006 29.6904 76.2203C29.7125 76.2059 29.7346 76.191 29.7523 76.1716C30.4616 75.4861 29.3377 74.5656 28.8457 74.2085ZM32.349 75.3932C34.6842 75.5795 34.2463 72.6904 33.1987 71.5057C33.0732 71.3586 32.8261 71.3979 32.7332 71.5593C32.6696 71.6671 32.6061 71.7749 32.5419 71.8827C32.4806 71.8877 32.4198 71.912 32.3656 71.9806C31.8564 72.5975 30.9702 73.2145 30.7546 74.0222C30.5036 74.9775 31.5949 75.3346 32.349 75.3932Z" fill="#F2A687"/>
<path d="M21.5415 36.746C21.6007 33.2841 22.5306 29.5188 23.5688 26.2283C24.2129 24.1817 25.1018 22.1594 26.2445 20.309C27.6206 16.8029 31.0747 14.0415 34.1131 12.1663C39.4209 8.88571 44.8653 5.39012 50.9343 3.7598C56.7933 2.1831 62.9823 1.85527 69.0215 1.64463C70.0714 1.60538 71.1218 1.62031 72.1644 1.65901C74.8114 2.34508 77.4037 3.21635 79.8931 4.33254C85.0981 6.66828 90.1096 9.9925 93.7644 14.4241C95.6794 16.7449 97.3385 19.3205 98.2838 22.1947C98.9743 24.2812 99.4199 26.435 99.9584 28.5701C100.012 28.9963 100.058 29.422 100.086 29.8483C100.281 32.8546 99.6035 35.5917 99.0595 38.4416C97.9062 38.0839 96.7386 37.7605 95.5655 37.4863C93.0689 36.85 90.554 36.4044 88.0276 36.1744C88.0176 36.1694 88.0148 36.1694 88.0082 36.1694C87.6583 36.0815 87.3006 36.013 86.9435 35.9494C86.7472 34.3727 85.3198 31.1021 85.3032 31.3907C85.2175 32.8352 85.2468 34.2798 85.1075 35.7139C82.1448 35.459 79.0876 35.7631 76.1321 36.1158C75.6694 33.6286 73.4835 28.7862 73.4586 29.0113C73.1651 31.4841 73.4243 33.9663 73.4807 36.4436C68.0679 37.1391 62.9121 38.5837 58.0842 40.8061C56.8851 41.2467 55.6948 41.7171 54.5173 42.202C53.8146 40.2975 51.4667 36.61 51.5082 36.8793C51.8266 38.9165 52.5237 40.7032 53.3049 42.5055C50.8713 43.5581 47.9164 45.1497 45.5419 46.4229C45.0764 45.2918 44.4788 44.2049 44.1759 43.0053C44.1001 42.7018 44.0094 45.7965 44.303 47.1084C42.1657 48.3075 40.0699 49.5907 38.0554 50.986L38.0576 70.7379C38.0576 70.7379 26.1008 59.7209 22.8545 45.0613C21.9821 42.3717 21.5001 39.6396 21.5415 36.746Z" fill="#A6785C"/>
<path opacity="0.6" d="M21.5415 36.746C21.6007 33.2842 22.5306 29.5188 23.5688 26.2283C24.2129 24.1817 25.1018 22.1594 26.2445 20.309C26.8344 18.8059 27.8091 17.4398 28.9695 16.2158C23.1304 24.7837 22.8169 37.3729 27.1064 46.9011C27.2557 47.2339 27.6991 47.0432 27.6183 46.7104C26.1959 40.7419 26.6044 34.2245 28.2298 28.2854C28.3354 32.7413 30.0049 37.1673 32.987 40.4965C33.1484 40.6778 33.5376 40.6093 33.4812 40.3102C32.9621 37.583 32.3645 34.836 32.4407 32.0502C33.579 33.617 35.1386 35.1494 36.9917 35.6785C38.3091 36.0555 38.3042 34.7044 38.3429 33.7347C38.475 30.6985 37.408 27.79 37.3295 24.7693C37.2853 23.1097 37.6231 21.5181 38.1179 19.9713C38.1278 20.0199 38.135 20.0741 38.1449 20.1277C38.7276 23.8295 39.4939 27.6043 40.96 31.0711C42.0784 33.7248 43.7363 36.7709 46.7548 37.5294C46.8671 37.5537 47.2347 30.1999 46.7471 26.6108C47.8069 29.3231 51.1074 34.5231 51.051 34.2395C50.2084 29.8085 48.6588 25.3719 48.7523 20.8232C50.2919 25.1414 51.2273 29.7637 53.4232 33.8132C54.1065 35.0715 66.0755 34.5181 67.9756 33.926C69.4959 33.4555 71.4618 32.6921 71.9024 30.9539C72.9699 26.7772 70.6734 22.3855 69.0016 18.5466C73.1463 22.1942 75.7385 27.2964 77.433 32.4908C77.4695 32.6036 83.5612 31.9524 84.3517 29.1268C84.9637 26.9381 84.5989 24.583 84.0775 22.365C85.0644 23.756 85.9655 25.3128 86.4791 26.8745C86.8705 28.0643 87.1331 29.2938 87.488 30.4979C87.7473 31.3642 91.077 33.4157 91.8112 33.225C92.6554 33 93.8528 28.6812 93.6151 27.4036C93.1651 24.9601 92.4818 22.5364 91.3999 20.3041C94.6826 24.6715 98.8986 35.213 98.9622 34.9781C99.9263 31.5311 99.4122 27.795 98.526 24.3873C98.0047 22.37 97.349 20.3577 96.5601 18.4095C97.2528 19.6136 97.8482 20.8674 98.2838 22.1942C98.9743 24.2806 99.4199 26.4345 99.9584 28.5695C100.012 28.9958 100.058 29.4215 100.086 29.8477C100.281 32.854 99.6035 35.5912 99.0595 38.441C97.9062 38.0833 96.7386 37.7599 95.5655 37.4857C93.0689 36.8494 90.554 36.4038 88.0276 36.1738C88.0176 36.1689 88.0148 36.1689 88.0082 36.1689C87.6583 36.081 87.3006 36.0124 86.9435 35.9488C86.7472 34.3721 85.3198 31.1016 85.3032 31.3901C85.2175 32.8347 85.2468 34.2793 85.1075 35.7133C82.1448 35.4585 79.0876 35.7625 76.1321 36.1152C75.6694 33.628 73.4835 28.7857 73.4586 29.0107C73.1651 31.4836 73.4243 33.9658 73.4807 36.4431C68.0679 37.1385 62.9121 38.5831 58.0842 40.8055C56.8851 41.2461 55.6948 41.7166 54.5173 42.2014C53.8146 40.2969 51.4667 36.6095 51.5082 36.8787C51.8266 38.9159 52.5237 40.7027 53.3049 42.505C50.8713 43.5576 47.9164 45.1492 45.5419 46.4224C45.0764 45.2913 44.4788 44.2044 44.1759 43.0047C44.1001 42.7012 44.0094 45.796 44.303 47.1079C42.1657 48.307 40.0699 49.5901 38.0554 50.9855L38.0576 70.7373C38.0576 70.7373 26.1008 59.7203 22.8545 45.0607C21.9821 42.3717 21.5001 39.6396 21.5415 36.746Z" fill="#A6785C"/>
<path d="M59.7734 1.19907C59.7734 1.19907 86.2649 -0.77402 96.7213 21.1958C96.7213 21.1958 91.0785 12.2453 82.9993 8.86196C82.9993 8.86196 86.4169 11.3099 87.8637 15.7122C87.8637 15.7122 78.916 5.42441 59.7734 1.19907Z" fill="#A6785C"/>
<path d="M81.9578 70.0513C81.9578 70.0513 70.7622 73.3755 60.25 70.9568C62.0639 79.3539 68.1158 82.1496 73.7122 80.9405C79.3091 79.7309 81.9578 70.0513 81.9578 70.0513Z" fill="#F6948E"/>
<path d="M74.411 80.7347C74.1832 80.8181 73.9532 80.8917 73.7127 80.9403C69.693 81.8121 65.4356 80.6075 62.6836 76.7492C69.0838 76.5281 72.8951 79.3144 74.411 80.7347Z" fill="#D05957"/>
<path d="M72.2748 75.418C67.0206 75.4717 63.3758 74.664 61.0234 73.5915C60.7172 72.7838 60.4551 71.9075 60.25 70.9572C67.7294 72.676 75.5509 71.4912 79.4435 70.6631C79.0145 72.4797 77.5069 75.3688 72.2748 75.418Z" fill="white"/>
<path opacity="0.5" d="M85.6823 68.0283C85.6823 68.0283 85.4325 68.171 85.0582 68.3761C84.8697 68.4689 84.664 68.5961 84.4313 68.7138C84.2035 68.836 83.9636 68.9637 83.7137 69.0859C83.5915 69.1495 83.4765 69.228 83.3516 69.2816C83.2266 69.3358 83.1089 69.4088 82.9939 69.4674C82.8783 69.5215 82.7689 69.5945 82.6633 69.6537C82.5555 69.7023 82.4554 69.7565 82.362 69.8101C81.9899 70.0108 81.75 70.1971 81.75 70.1971C81.75 70.1971 82.0441 70.1971 82.4726 70.1136C82.6904 70.0788 82.9381 70.0202 83.1918 69.9229C83.4489 69.8344 83.7181 69.7266 83.9757 69.5851C84.1029 69.5166 84.2306 69.443 84.355 69.3745C84.4772 69.296 84.5877 69.2081 84.6999 69.1296C84.9227 68.9726 85.1063 68.7868 85.2578 68.6304C85.407 68.464 85.5198 68.3213 85.5861 68.2041C85.6552 68.0974 85.6823 68.0283 85.6823 68.0283Z" fill="#F2A687"/>
<path d="M85.1615 67.6279C85.1615 67.6279 75.5891 72.6615 59.8984 69.7967C63.9458 71.7698 79.8294 71.8682 85.1615 67.6279Z" fill="#F5BA9E"/>
<path opacity="0.6" d="M83.0927 46.309C84.1088 45.3493 85.2421 44.6886 86.5618 45.1829C87.1986 45.4178 88.0235 46.0149 88.5691 46.4361C87.291 46.1033 85.5014 46.5782 84.4096 47.2151C83.4277 47.7779 80.757 50.2015 80.25 50.7455C80.9117 49.0367 81.8571 47.4843 83.0927 46.309Z" fill="#F2A687"/>
<path d="M80.2449 50.7548C80.1664 50.6763 80.0857 50.5884 80 50.4956C80.7955 47.0337 82.6171 43.7139 84.6322 43.6697C87.2516 43.6017 88.5685 46.4361 88.5685 46.4361C88.5685 46.4361 87.413 45.6134 84.8058 46.216C83.2291 46.5831 80.3793 50.8964 80.2449 50.7548Z" fill="#8E674F"/>
<path opacity="0.6" d="M68.2297 49.3453C66.5773 48.9533 64.8856 48.4978 63.2669 48.8212C60.9096 49.2961 58.4881 50.1187 56.6328 52.0033C58.0204 49.154 60.4839 47.3374 63.0667 46.8575C65.6374 46.3776 68.2397 47.5673 70.3548 49.751C69.6549 49.4182 68.8268 49.4868 68.2297 49.3453Z" fill="#F2A687"/>
<path d="M70.991 49.9762C70.991 49.9762 66.8685 43.5373 61.8499 45.5839C56.8284 47.6305 56.207 52.1593 56.207 52.1593C56.207 52.1593 60.8708 47.2092 64.8833 48.164C68.5044 49.0264 70.991 49.9762 70.991 49.9762Z" fill="#8E674F"/>
<path d="M82.8394 65.3455C83.0229 64.6942 83.165 63.6317 82.4032 63.2939C81.7304 62.9904 80.6186 63.421 80.0409 63.7931C80.0409 63.7737 80.0486 63.7538 80.0702 63.7345C80.2952 63.5338 80.6042 63.3381 80.9392 63.1662C80.4743 62.9113 80.068 62.4414 79.7274 62.1086C79.6102 61.9908 79.4996 61.8736 79.3874 61.7509C79.2476 61.2567 79.1132 60.7669 78.9883 60.2671C79.3675 60.8741 79.8474 61.3833 80.3742 61.8731C80.7192 62.2009 81.2925 62.495 81.5905 62.8964C82.5696 62.5879 83.5835 62.6858 83.7576 63.9197C83.924 65.0901 83.2363 66.3334 82.5043 67.1709C82.1096 67.6215 81.5839 67.9643 81.0133 68.2092C81.6297 67.9455 82.4994 66.5844 82.8394 65.3455Z" fill="#EC8861"/>
<path opacity="0.5" d="M80.5921 68.3326C78.5753 68.9446 76.976 67.2651 76.5547 65.4192C77.2723 65.5518 78.0214 65.6298 78.7583 65.6248C79.4632 65.6298 80.1658 65.5613 80.7922 65.3606C81.8841 65.0471 82.8023 64.4451 83.3237 63.4312C83.3408 63.6517 83.3286 63.8624 83.2943 64.0531C83.3535 64.3566 83.0677 67.5879 80.5921 68.3326Z" fill="#F2A687"/>
<path d="M81.3137 63.2602C81.3137 63.2602 82.6576 62.7654 82.6255 63.583C82.5935 64.3957 81.061 65.0082 80.3976 64.7633C79.7347 64.5229 80.6237 63.4067 81.3137 63.2602Z" fill="#F5BA9E"/>
<path opacity="0.6" d="M58.8331 51.2684C60.49 50.2595 62.4095 49.721 64.4782 49.9167C67.6708 50.2153 70.1824 52.5167 71.507 55.3616C72.6795 57.8688 72.8437 60.503 72.5109 63.171C70.0795 64.552 66.8167 64.777 64.1603 64.6935C60.767 64.5808 57.5229 63.3325 54.2031 64.3309C54.5558 63.2589 56.1054 62.9991 57.0431 62.5883C57.2244 62.5049 57.2001 62.2699 57.0995 62.1427C55.5742 60.2432 54.7173 57.9368 55.6698 55.5568C56.3288 53.9027 57.3742 52.316 58.8331 51.2684Z" fill="#F2A687"/>
<path d="M63.5704 51.4833C71.7032 50.2986 72.423 61.4084 72.4744 62.5495C71.047 63.1957 69.2596 63.47 67.8444 63.6999C66.5153 63.92 64.3239 64.3363 63.0043 64.2826C57.7772 63.4794 56.5117 59.5669 56.5117 59.5669C56.5781 52.9329 63.5704 51.4833 63.5704 51.4833Z" fill="white"/>
<path d="M62.0593 59.1374C62.4827 62.0409 64.3779 64.0875 66.2968 63.7055C68.2168 63.324 69.4303 60.6649 69.0095 57.7614C68.5883 54.8579 66.6909 52.8162 64.7715 53.1933C62.8548 53.5698 61.6402 56.2339 62.0593 59.1374Z" fill="#6F3415"/>
<path d="M63.1784 59.0491C63.5234 61.4335 65.0857 63.118 66.6619 62.8046C68.243 62.4961 69.2398 60.3024 68.8948 57.918C68.5471 55.5287 66.9853 53.8491 65.4086 54.1576C63.8302 54.4761 62.8307 56.6603 63.1784 59.0491Z" fill="#8E4523"/>
<path d="M64.669 58.6766C64.8819 60.1704 65.8637 61.2274 66.8533 61.0317C67.8423 60.836 68.4692 59.465 68.2514 57.9668C68.033 56.473 67.054 55.421 66.0677 55.6117C65.0754 55.8124 64.449 57.1834 64.669 58.6766Z" fill="#36160E"/>
<path d="M66.4489 56.0283C66.7502 56.5475 67.2837 56.8266 67.6414 56.6602C68.0013 56.4789 68.0428 55.9205 67.7415 55.402C67.4424 54.8829 66.9067 54.6037 66.549 54.7751C66.1946 54.9509 66.1476 55.5136 66.4489 56.0283Z" fill="white"/>
<path d="M68.0556 57.7369C68.0971 58.0062 68.274 58.1925 68.4498 58.1532C68.6261 58.1189 68.7339 57.874 68.6947 57.6048C68.6532 57.3405 68.4741 57.1548 68.3 57.1885C68.1247 57.2272 68.0141 57.4727 68.0556 57.7369Z" fill="white"/>
<path opacity="0.6" d="M70.0414 57.6241C68.7367 55.9059 67.0301 54.3143 64.7656 54.1429C62.2928 53.9522 59.8398 55.0932 58.2388 56.9734C57.5262 57.8154 56.9955 58.7265 56.5598 59.6857C56.5328 59.6121 56.5156 59.5679 56.5156 59.5679C56.5814 52.9338 63.5737 51.4843 63.5737 51.4843C70.5997 50.461 72.0935 58.6087 72.4015 61.5808C71.8707 60.1412 70.8695 58.711 70.0414 57.6241Z" fill="#B2B5B6"/>
<path opacity="0.6" d="M58.3962 64.2979C61.8675 64.4399 64.5974 66.6187 64.4918 69.1595C64.3868 71.7053 61.4827 73.6497 58.0114 73.5026C54.5346 73.3556 51.8081 71.1818 51.9131 68.6354C52.0209 66.0946 54.9216 64.1508 58.3962 64.2979ZM61.3014 67.6956C61.402 68.1904 61.7741 68.631 62.2268 68.8411C62.6824 69.0567 63.3336 68.9345 63.4657 68.3712C63.6078 67.7979 63.2916 67.1472 62.7924 66.8387C62.7581 66.8193 62.7261 66.8144 62.6945 66.8044C62.4762 66.638 62.2219 66.5595 61.9676 66.6281C61.5098 66.7608 61.2035 67.2257 61.3014 67.6956ZM60.1487 66.251C60.1294 66.3738 60.1752 66.4965 60.3273 66.5451C60.403 66.6286 60.5158 66.6822 60.6092 66.7464C60.7801 66.8542 61.0427 66.7314 61.0427 66.5214C61.0427 66.3152 61.0156 66.1095 60.8414 65.9779C60.7756 65.9287 60.6993 65.9044 60.6264 65.8795C60.6092 65.8602 60.5965 65.8452 60.5772 65.8309C60.5236 65.7866 60.4622 65.7767 60.4014 65.7867C60.1581 65.7474 59.9751 66.0653 60.1487 66.251Z" fill="url(#paint0_radial_7965_664)"/>
<path d="M53.4453 56.586L56.7043 55.8762C56.7043 55.8762 59.348 51.9886 61.6937 51.3324C62.2465 51.0825 62.8541 50.8818 63.5274 50.7492C69.1631 49.6722 72.7543 57.0996 72.4757 62.5495C72.4757 62.5495 70.5955 53.6427 65.3319 52.6443C61.6594 51.9438 59.1937 53.8633 57.8404 55.7043C57.402 56.3754 56.9614 57.1394 56.7049 57.8393L53.4453 56.586Z" fill="#6A4D3B"/>
<path opacity="0.6" d="M91.1374 52.1355C91.0915 54.187 90.1826 56.3221 89.4899 58.1531C88.1753 61.62 81.4113 62.0163 81.1537 60.3269C80.6838 57.2371 80.4903 52.1404 82.6718 49.7605C85.3547 46.8276 89.3257 48.9627 91.1374 52.1355Z" fill="#F2A687"/>
<path d="M81.3509 60.0578C81.3509 60.0578 80.1706 49.2272 85.322 49.2172C85.322 49.2172 88.8695 48.8546 90.3843 53.2519C90.3843 53.2519 90.1151 59.6709 85.8405 60.3271C81.566 60.9833 81.3509 60.0578 81.3509 60.0578Z" fill="white"/>
<path opacity="0.6" d="M89.2358 51.2979C88.1511 50.1474 86.2593 49.4033 84.8291 50.2602C81.977 51.9641 81.6912 56.4343 81.3429 59.9747C81.2501 59.01 80.4247 49.227 85.3239 49.2176C85.3239 49.2176 88.3397 48.919 89.9999 52.3317C89.7035 51.8657 89.405 51.4792 89.2358 51.2979Z" fill="#B2B5B6"/>
<path opacity="0.6" d="M87.8176 60.474C90.9047 59.872 93.7667 61.2137 94.2101 63.471C94.6507 65.7326 92.5063 68.0534 89.417 68.656C86.3294 69.263 83.4701 67.9169 83.0267 65.6596C82.5834 63.3969 84.7306 61.076 87.8176 60.474ZM91.0932 62.8584C91.2817 63.2697 91.7052 63.5732 92.1513 63.6661C92.5942 63.7595 93.1376 63.519 93.1426 62.9905C93.1426 62.4565 92.7313 61.9523 92.2243 61.7859C92.1928 61.7765 92.1608 61.7765 92.1315 61.7765C91.9059 61.6781 91.661 61.6587 91.4531 61.7765C91.0783 61.9822 90.9097 62.462 91.0932 62.8584ZM89.7736 61.8251C89.7813 61.9379 89.8499 62.0408 89.9942 62.0457C90.0799 62.0994 90.1877 62.1292 90.2805 62.1629C90.4569 62.2215 90.6598 62.0601 90.6134 61.8694C90.5741 61.6936 90.5056 61.5216 90.327 61.4437C90.2557 61.4089 90.1877 61.4039 90.1141 61.3945C90.0948 61.3895 90.0826 61.3751 90.0633 61.3652C90.0063 61.3414 89.9505 61.3414 89.8969 61.3652C89.6779 61.3801 89.5801 61.6974 89.7736 61.8251Z" fill="url(#paint1_radial_7965_664)"/>
<path d="M91.4317 50.6266L90.389 53.2515C90.389 53.2515 88.7587 49.5496 85.8159 49.4717C82.8682 49.3882 80.9758 52.6538 81.3556 60.0575C81.3556 60.0575 79.5318 50.1965 84.5334 48.8398C84.5334 48.8398 87.5983 47.6451 90.1612 51.5471L91.4317 50.6266Z" fill="#6A4D3B"/>
<path d="M82.4355 55.9101C83.0597 58.5936 84.9985 60.366 86.7659 59.8568C88.5339 59.3526 89.4616 56.7571 88.8396 54.0736C88.2155 51.3857 86.2767 49.6183 84.5065 50.1324C82.7418 50.6322 81.8136 53.2272 82.4355 55.9101Z" fill="#6F3415"/>
<path d="M83.474 55.739C83.9831 57.947 85.5819 59.401 87.0331 58.9847C88.4876 58.5684 89.2511 56.4389 88.7375 54.2259C88.2256 52.0228 86.6296 50.5633 85.175 50.9846C83.7211 51.4003 82.9576 53.5304 83.474 55.739Z" fill="#8E4523"/>
<path d="M84.842 55.2738C85.1621 56.6597 86.1638 57.5703 87.0749 57.306C87.9854 57.0462 88.4653 55.7144 88.1447 54.329C87.8246 52.943 86.8228 52.0325 85.9117 52.2923C84.9985 52.556 84.5214 53.8928 84.842 55.2738Z" fill="#36160E"/>
<path d="M86.3039 52.654C86.6301 53.1145 87.1514 53.3351 87.4742 53.1438C87.7949 52.9531 87.7899 52.424 87.4671 51.9635C87.1464 51.4986 86.6223 51.278 86.3017 51.4693C85.981 51.6606 85.9838 52.1891 86.3039 52.654Z" fill="white"/>
<path d="M87.9407 54.1283C88.002 54.3732 88.18 54.5302 88.3448 54.481C88.5062 54.4368 88.5869 54.1968 88.5305 53.9519C88.4692 53.707 88.2879 53.5456 88.1264 53.5898C87.965 53.6379 87.8821 53.8784 87.9407 54.1283Z" fill="white"/>
<path d="M148.979 81.1661C148.979 81.1661 149.505 80.5049 149.447 80.857C149.336 81.4546 149.123 82.0373 148.815 82.5708C148.793 82.6101 148.763 82.6394 148.742 82.6786C148.213 83.4028 147.635 84.1083 146.918 84.6666C146.275 85.1609 145.589 85.5235 144.866 85.7878C144.402 85.9348 143.932 86.0283 143.457 86.057C142.166 86.1305 140.911 85.7834 139.831 85.0929C138.952 84.5251 137.965 83.6384 137.968 82.4929L137.906 80.3877C137.906 80.3877 140.357 78.0226 142.881 78.4489C144.064 78.6446 144.967 79.4865 145.848 80.2307C146.416 80.7205 147.133 81.3225 147.941 81.2147C148.188 81.1705 148.371 81.0876 148.546 80.9504C148.56 80.9504 148.582 80.9455 148.604 80.9405C148.776 80.9062 148.945 80.857 149.113 80.7934L148.979 81.1661Z" fill="#432818"/>
<path opacity="0.5" d="M144.53 79.3245C144.139 79.2217 143.723 79.1233 143.309 79.1432C143.138 79.1481 142.519 79.2416 142.523 79.4715C142.531 79.7601 143.776 80.0542 143.983 80.1571C144.2 80.2649 144.521 80.402 144.641 80.632C144.768 80.8619 144.568 81.0283 144.362 81.0974C143.828 81.2832 143.228 81.2782 142.666 81.3523C142.396 81.3866 141.924 81.4452 141.71 81.6265C141.285 81.9886 141.951 82.0715 142.249 82.1843C142.548 82.2965 143.096 82.5321 143.248 82.84C143.559 83.5161 142.832 83.6239 142.391 83.8489C141.887 84.1038 142.448 84.4902 142.724 84.6174C143.283 84.8822 143.936 84.823 144.528 84.7058C145.4 84.525 146.213 84.1767 146.97 83.7168C147.699 83.2811 148.62 82.6205 149.173 81.8272C149.07 82.082 148.945 82.3413 148.805 82.5862C148.783 82.6155 148.764 82.6448 148.742 82.6791C148.213 83.4033 147.635 84.1087 146.918 84.6671C146.267 85.1663 145.574 85.5334 144.835 85.7982C144.389 85.9453 143.917 86.0332 143.457 86.0575C142.166 86.131 140.911 85.7839 139.831 85.0934C138.952 84.5256 137.965 83.6388 137.968 82.4934L137.906 80.3881C137.906 80.3881 140.357 78.0231 142.881 78.4493C143.63 78.5765 144.267 78.953 144.857 79.4091C144.741 79.3781 144.633 79.3488 144.53 79.3245Z" fill="#663B16"/>
<path d="M102.457 83.07C102.457 83.07 99.025 82.3209 101.399 81.2927C104.043 80.1422 124.547 77.6257 133.718 79.5551L138.073 80.2848C138.073 80.2848 139.043 81.2197 138.056 82.8013C138.056 82.8013 136.237 83.0512 133.067 83.4332C120.961 84.8867 108.083 84.2111 102.457 83.07Z" fill="#9F5524"/>
<path d="M101.399 81.2928C101.605 81.2049 101.911 81.1121 102.31 81.0092C102.266 81.0728 102.244 81.1513 102.224 81.2248C102.012 82.3261 103.904 82.4046 104.575 82.4394C108.294 82.6252 120.038 82.043 122.19 81.8169C124.202 81.6113 126.346 81.4548 128.264 80.7494C128.756 80.5736 129.422 80.3331 129.6 79.7753C129.694 79.506 129.63 79.2418 129.502 79.0068C131.064 79.1146 132.492 79.2904 133.718 79.5553L138.073 80.285C138.073 80.285 139.043 81.2198 138.056 82.8015C138.056 82.8015 136.237 83.0514 133.067 83.4334C120.961 84.8874 108.083 84.2124 102.457 83.0707C102.457 83.0707 99.025 82.3211 101.399 81.2928Z" fill="#B69C4B"/>
<path d="M131.495 81.5526C131.569 80.7742 131.527 79.873 131.179 79.1582C132.091 79.261 132.945 79.3882 133.719 79.5546L138.074 80.2843C138.074 80.2843 139.044 81.2192 138.057 82.8009C138.057 82.8009 136.238 83.0508 133.067 83.4328C132.396 83.5162 131.711 83.5898 131.035 83.6578C131.297 82.9722 131.441 82.2331 131.495 81.5526Z" fill="#8E9092"/>
<path d="M131.334 82.6444C132.872 82.4973 137.523 82.1988 138.367 82.1689C138.297 82.3752 138.201 82.5758 138.057 82.8008C138.057 82.8008 136.238 83.0507 133.067 83.4327C132.396 83.5162 131.711 83.5897 131.035 83.6577C131.165 83.3299 131.259 82.9921 131.334 82.6444Z" fill="#8E9092"/>
<path d="M135.812 80.9553C134.383 80.8818 132.945 80.8917 131.516 80.7591C131.513 80.5241 131.494 80.2842 131.457 80.0542C133.783 80.3234 136.106 80.6861 138.432 80.9647C138.447 81.0139 138.459 81.0725 138.466 81.1361C137.585 81.0725 136.694 81.004 135.812 80.9553Z" fill="#8E9092"/>
<path d="M130.833 79.1091C130.833 79.1091 131.133 78.9233 131.445 79.1677C131.445 79.1677 132.513 80.7737 131.293 83.5893C131.293 83.5893 131.183 83.7994 130.926 83.7994C130.666 83.7994 130.608 83.7115 130.703 83.4467C130.809 83.1879 131.658 81.1612 130.833 79.1091Z" fill="#8C9DA8"/>
<path d="M148.673 80.8962C148.722 80.8819 148.781 80.8669 148.832 80.8526C149.02 80.8034 149.339 80.6464 149.53 80.6663C149.802 80.6956 149.628 81.1611 149.574 81.3225C149.013 82.9727 147.679 84.4173 146.169 85.2686C145.738 85.5135 145.292 85.8071 144.793 85.8956C144.57 85.9298 144.347 85.9448 144.136 85.8956C143.387 85.7292 143.904 84.8822 144.193 84.5588C144.474 84.2359 144.758 83.9319 144.995 83.5747C145.103 83.4034 145.203 83.2077 145.257 83.0169C145.325 82.7621 145.213 82.5514 145.078 82.3513C144.483 81.4402 143.201 81.2296 142.505 80.3976C142.011 79.8055 141.406 78.8994 142.261 78.2874C142.917 77.8225 143.957 78.3266 144.549 78.66C145.735 79.3256 146.682 81.113 148.202 80.9759C148.365 80.9648 148.514 80.9305 148.673 80.8962Z" fill="#7CBB42"/>
<path opacity="0.4" d="M144.191 84.5591C144.472 84.2362 144.756 83.9322 144.993 83.575C145.101 83.4036 145.201 83.2079 145.255 83.0172C145.323 82.7624 145.211 82.5517 145.076 82.3516C144.481 81.4405 143.199 81.2299 142.503 80.3979C142.023 79.8301 141.463 78.9682 142.158 78.3706C142.097 78.5962 142.092 78.8361 142.117 79.0417C142.217 79.7029 142.758 80.1336 143.302 80.4769C143.961 80.8932 144.849 81.1575 145.375 81.7545C145.679 82.1122 145.742 82.5185 145.615 82.9641C145.547 83.1842 145.498 83.4241 145.585 83.6497C145.906 84.4916 147.6 83.517 148.009 83.209C148.457 82.8713 148.942 82.4406 149.316 81.9558C148.655 83.3461 147.477 84.5359 146.165 85.2706C145.735 85.5155 145.289 85.809 144.789 85.8975C144.567 85.9318 144.344 85.9467 144.133 85.8975C143.385 85.7294 143.901 84.8825 144.191 84.5591Z" fill="#45BBEC"/>
<path opacity="0.4" d="M146.736 80.6812C147.062 80.9405 147.431 81.1511 147.833 81.1754C147.955 81.1754 148.08 81.1754 148.197 81.161C148.412 81.1704 148.626 81.1561 148.829 81.1118C148.726 81.1854 148.631 81.2733 148.523 81.3368C148.523 81.3368 148.516 81.3368 148.509 81.3368C148.442 81.3562 148.379 81.3761 148.315 81.3811C147.952 81.4446 147.63 81.4303 147.309 81.3468C146.536 80.9554 145.877 80.3285 145.395 79.5938C145.617 79.7502 145.823 79.9266 146.026 80.1079C146.266 80.3135 146.484 80.5192 146.736 80.6812Z" fill="white"/>
<path d="M91.9225 108.786C92.4858 106.245 108.631 84.9658 108.631 84.9658C110.178 86.0571 111.691 87.2037 113.084 88.4664C109.539 96.8883 102.723 112.086 99.1608 113.506C94.2112 115.479 91.3569 111.327 91.9225 108.786Z" fill="#F5BA9E"/>
<path d="M74.8751 85.3576C74.8751 85.3576 88.5893 96.3154 91.4293 118.319C94.267 140.319 94.9033 156.477 94.9033 156.477C94.9033 156.477 87.4582 163.342 61.7894 158.112C61.7894 158.112 56.1631 157.235 57.15 153.926C58.139 150.62 60.2547 132.533 60.2547 132.533L52.5625 130.154V128.166L60.8346 127.794C60.8346 127.794 66.3232 93.9548 54.8927 85.2934L58.6852 84.6372C58.6852 84.6372 64.6365 88.6718 67.3907 102.245L81.9619 101.603C81.9619 101.603 76.7354 89.118 71.2706 84.9656L74.8751 85.3576Z" fill="#86D3E8"/>
<path d="M87.3488 148.187C83.9654 149.254 80.4615 150.038 76.9195 150.288C70.5392 150.743 64.0472 149.759 58.3966 146.904C59.3149 140.563 60.2547 132.534 60.2547 132.534L52.5625 130.154V128.166L60.8346 127.794C60.8346 127.794 66.3232 93.955 54.8927 85.2937L56.2787 85.0537C56.5258 85.24 56.7442 85.4214 56.9056 85.5579C57.9118 86.3756 58.8743 87.2623 59.7356 88.2364C61.9685 90.7485 63.0239 94.1855 63.7215 97.4124C64.5807 101.378 65.1705 105.472 65.364 109.521C65.5769 114.045 65.4353 118.574 65.6255 123.103C65.6382 123.348 75.5628 121.37 81.9409 122.687C84.5945 123.236 87.2282 123.872 89.4811 125.473C90.7907 126.403 91.8362 127.549 92.6759 128.832C93.3487 135.036 93.8336 140.491 94.1713 144.883C92.3359 146.576 89.4418 147.531 87.3488 148.187Z" fill="#86D3E8"/>
<path d="M48.1055 107.479C48.1055 107.479 50.3041 122.789 54.6052 125.345C54.6052 125.345 58.3949 125.722 58.6813 118.613C58.7542 116.772 57.4766 107.586 57.4766 107.586L48.1055 107.479Z" fill="#E29C7D"/>
<path opacity="0.5" d="M52.0737 111.44C50.1322 111.974 49.8386 113.619 49.7115 115.332C48.6439 111.229 48.1055 107.479 48.1055 107.479L57.4766 107.586C57.4766 107.586 57.658 108.874 57.878 110.578C55.9469 110.446 53.8539 110.95 52.0737 111.44Z" fill="#F2A687"/>
<path d="M56.8434 87.2868C56.8434 87.2868 59.5998 88.1873 60.2317 94.6998C60.6795 99.3364 59.8619 109.315 59.9006 109.913C56.9727 109.354 53.9178 109.736 50.975 110.006C48.9013 110.202 46.7784 110.408 44.7539 110.946L45.89 98.1617C45.89 98.1617 46.8796 84.5099 56.8434 87.2868Z" fill="#F9BAB7"/>
<path d="M55.244 86.973C51.2586 87.9228 49.4912 94.4346 48.8764 97.9501C48.4872 100.178 48.061 102.445 48.0317 104.707C48.0145 106.079 47.9289 107.723 49.3928 108.389C50.8987 109.075 52.5954 108.909 54.2063 108.943C56.1181 108.992 57.9369 109.329 59.7198 109.888C56.8478 109.379 53.8592 109.736 50.975 110.005C48.9013 110.202 46.7784 110.407 44.7539 110.946L45.89 98.1613C45.89 98.1613 46.7762 86.0177 55.244 86.973Z" fill="#ECA2A3"/>
<path d="M58.7834 118.901L73.9079 139.971L67.9566 141.552C67.9566 141.552 60.705 133.233 54.6995 125.82C50.8662 121.08 55.7333 118.147 58.7834 118.901Z" fill="#F5BA9E"/>
<path d="M108.708 86.0669C108.708 86.0669 107.579 83.8146 109.839 81.1361C112.096 78.4576 121.424 77.1949 119.113 79.006C116.802 80.8127 114.919 80.999 115.107 82.9229C115.296 84.8572 114.542 88.9947 112.001 88.8084C109.462 88.6177 108.708 86.0669 108.708 86.0669Z" fill="#F5BA9E"/>
<path d="M77.0911 124.645C81.0273 124.645 88.9721 124.019 90.7711 128.671C91.2874 130.002 90.7738 131.393 91.0232 132.749C91.1404 133.395 92.3522 134.443 92.7762 134.958C94.113 136.588 96.3575 138.477 95.714 140.843C94.9456 143.658 90.9109 144.618 88.5238 145.392C87.0112 145.882 85.4025 146.376 83.823 146.606C81.6929 146.92 79.4335 147.086 77.0911 147.086C64.2824 147.086 53.8945 142.063 53.8945 135.864C53.8945 129.669 64.2824 124.645 77.0911 124.645Z" fill="#F39961"/>
<path d="M77.0911 124.645C81.0273 124.645 88.9721 124.028 90.7711 128.587C91.2874 129.894 90.7738 131.25 91.0232 132.582C91.1404 133.214 92.3522 134.237 92.7762 134.741C94.113 136.338 96.3575 138.193 95.714 140.509C94.9456 143.26 90.9109 144.201 88.5238 144.96C87.0112 145.44 85.4025 145.924 83.823 146.149C81.6929 146.458 79.4335 146.619 77.0911 146.619C64.2824 146.619 53.8945 141.699 53.8945 135.627C53.8945 129.566 64.2824 124.645 77.0911 124.645Z" fill="#F9D39A"/>
<path d="M94.6216 137.714C93.2976 136.426 90.6141 135.045 90.1198 133.18C89.7964 131.96 90.6389 130.536 90.1027 129.385C87.9311 124.714 80.8825 124.744 76.4542 125.154C71.1763 125.644 64.3354 126.613 59.7209 129.385C56.6311 131.236 54.1389 134.545 54.4523 138.027C54.0924 137.254 53.8945 136.455 53.8945 135.628C53.8945 129.566 64.2824 124.645 77.0911 124.645C81.0273 124.645 88.9721 124.028 90.7711 128.587C91.2874 129.894 90.7738 131.25 91.0232 132.582C91.1404 133.214 92.3522 134.237 92.7762 134.741C93.8659 136.044 95.5548 137.512 95.7969 139.261C95.5155 138.718 95.1258 138.199 94.6216 137.714Z" fill="#F9D39A"/>
<path d="M89.2209 136.333C90.0479 136.455 90.8075 136.92 91.3626 137.542C91.6445 137.659 91.9016 137.787 92.1194 137.929C94.6481 139.569 92.7485 142.434 90.4625 142.972C88.129 143.516 85.1205 141.822 84.1292 139.726C82.6769 136.655 87.3014 136.044 89.2209 136.333Z" fill="#EF539D"/>
<path d="M78.139 141.19C78.3496 140.857 78.9202 140.794 79.2657 140.769C80.4598 140.671 81.8408 141.577 82.3163 142.654C82.5313 143.134 82.6806 143.751 82.3113 144.207C82.1256 144.437 81.8265 144.529 81.5379 144.559C81.4107 144.618 81.2709 144.657 81.1144 144.681C79.8412 144.833 78.7372 143.79 78.1352 142.811C77.814 142.292 77.8239 141.689 78.139 141.19Z" fill="#EE2962"/>
<path d="M69.0451 135.579C70.7019 134.825 73.0476 135.349 74.323 136.597C74.548 136.813 74.7537 137.048 74.94 137.288C75.5232 137.67 75.981 138.213 76.1933 138.957C76.7666 140.97 74.9864 142.116 73.2925 142.439C71.2481 142.831 68.8444 141.758 67.6619 140.103C66.3373 138.243 67.1041 136.461 69.0451 135.579Z" fill="#83CBA6"/>
<path d="M58.9909 136.279C59.8777 135.324 61.5981 135.496 62.6629 135.961C62.8464 136.039 63.035 136.142 63.219 136.265C64.3424 136.652 65.3071 137.89 65.552 138.957C65.8555 140.289 64.9251 141.195 63.7033 141.445C62.2273 141.738 60.7755 141.136 59.708 140.127C58.741 139.212 57.9428 137.41 58.9909 136.279Z" fill="#71CCDA"/>
<path d="M62.9069 138.242C63.1546 137.973 63.6345 138.027 63.928 138.154C63.9789 138.179 64.0308 138.203 64.0845 138.238C64.3952 138.346 64.6644 138.693 64.7307 138.992C64.8164 139.359 64.5594 139.614 64.2166 139.677C63.8075 139.766 63.4039 139.594 63.1048 139.315C62.8384 139.06 62.6156 138.556 62.9069 138.242Z" fill="#CBE8DE"/>
<path d="M73.8679 137.919C74.115 137.655 74.5926 137.704 74.8884 137.831C74.9398 137.85 74.9934 137.885 75.0449 137.914C75.3561 138.022 75.6253 138.37 75.6939 138.664C75.7768 139.036 75.5203 139.29 75.1797 139.359C74.7684 139.437 74.3621 139.271 74.0658 138.992C73.7993 138.732 73.5765 138.238 73.8679 137.919Z" fill="#CBE8DE"/>
<path d="M64.0951 130.163C65.302 130.08 66.7808 131.064 67.0866 132.24C67.2292 132.788 67.1601 133.224 66.8588 133.694C66.7267 133.899 66.4773 134.041 66.2098 134.12C65.6934 134.345 64.9885 134.276 64.4915 134.129C63.4019 133.801 62.2852 132.856 62.2852 131.633C62.2857 130.712 63.304 130.217 64.0951 130.163Z" fill="#D8A6CC"/>
<path d="M81.4604 129.434C82.8431 129.151 84.2705 130.066 85.0345 131.202C85.2087 131.364 85.3629 131.54 85.4879 131.716C86.4227 133.028 85.5708 134.458 84.2241 134.987C81.2177 136.172 77.8029 130.188 81.4604 129.434Z" fill="#8393CA"/>
<path d="M77.5698 133.821C77.5941 133.826 77.6212 133.84 77.6433 133.845C78.006 133.767 78.4118 133.831 78.7888 134.026C79.7485 134.54 81.0682 136.269 79.717 137.106C79.2493 137.394 78.4339 137.106 77.9983 136.9C77.2049 136.518 76.3602 135.739 76.3066 134.804C76.2657 134.09 76.897 133.644 77.5698 133.821Z" fill="#F8C253"/>
<path d="M71.4762 126.761C73.222 126.154 76.042 126.883 77.0775 128.479C77.1776 128.641 77.276 128.802 77.3661 128.964C77.8703 129.566 78.1766 130.325 78.1351 131.138C78.0538 132.763 76.6999 133.522 75.2487 133.732C73.3558 134.002 71.1749 132.601 70.3428 130.947C69.5545 129.39 69.5694 127.417 71.4762 126.761Z" fill="#EE8145"/>
<path d="M75.4577 129.841C75.7049 129.576 76.1847 129.62 76.4811 129.752C76.5303 129.776 76.5839 129.801 76.6347 129.836C76.9482 129.943 77.2152 130.286 77.2838 130.585C77.3695 130.957 77.1102 131.207 76.7696 131.28C76.3583 131.358 75.9542 131.192 75.6579 130.912C75.3886 130.658 75.1664 130.158 75.4577 129.841Z" fill="#EE8145"/>
<path d="M90.9968 139.041C91.2439 138.771 91.7238 138.821 92.0173 138.952C92.071 138.972 92.1202 139.001 92.1738 139.035C92.485 139.143 92.7543 139.486 92.8206 139.785C92.9085 140.157 92.6492 140.407 92.3059 140.475C91.8974 140.559 91.4932 140.392 91.1942 140.113C90.9282 139.858 90.7054 139.354 90.9968 139.041Z" fill="#EB839F"/>
<path d="M64.7572 132.308C65.0043 132.044 65.4842 132.093 65.7805 132.22C65.8319 132.244 65.8833 132.269 65.9347 132.308C66.2482 132.411 66.5174 132.758 66.5837 133.057C66.6689 133.425 66.4096 133.679 66.0691 133.748C65.6577 133.831 65.2564 133.664 64.9573 133.38C64.6886 133.125 64.4686 132.626 64.7572 132.308Z" fill="#D8A6CC"/>
<defs>
<radialGradient id="paint0_radial_7965_664" cx="0" cy="0" r="1" gradientUnits="userSpaceOnUse" gradientTransform="translate(59.2706 59.1012) rotate(180) scale(16.5247 16.5247)">
<stop offset="0.0011" stop-color="#EE7B63"/>
<stop offset="0.1221" stop-color="#F1907C"/>
<stop offset="0.42" stop-color="#F7BFB4"/>
<stop offset="0.6763" stop-color="#FBE2DD"/>
<stop offset="0.8779" stop-color="#FEF7F6"/>
<stop offset="1" stop-color="white"/>
</radialGradient>
<radialGradient id="paint1_radial_7965_664" cx="0" cy="0" r="1" gradientUnits="userSpaceOnUse" gradientTransform="translate(89.5767 55.5627) rotate(180) scale(15.1111 15.1111)">
<stop offset="0.0011" stop-color="#EE7B63"/>
<stop offset="0.1221" stop-color="#F1907C"/>
<stop offset="0.42" stop-color="#F7BFB4"/>
<stop offset="0.6763" stop-color="#FBE2DD"/>
<stop offset="0.8779" stop-color="#FEF7F6"/>
<stop offset="1" stop-color="white"/>
</radialGradient>
</defs>
</svg>
